<?xml version="1.0" encoding="UTF-8" standalone="no"?>
<svg
    xmlns:cc="http://creativecommons.org/ns#"
    xmlns:dc="http://purl.org/dc/elements/1.1/"
    xmlns:inkscape="http://www.inkscape.org/namespaces/inkscape"
    xmlns:rdf="http://www.w3.org/1999/02/22-rdf-syntax-ns#"
    xmlns="http://www.w3.org/2000/svg"
    xmlns:sodipodi="http://sodipodi.sourceforge.net/DTD/sodipodi-0.dtd"
    height="200"
    id="svg2"
    version="1.0"
    width="200"
    xmlns="http://www.w3.org/2000/svg"
    inkscape:export-filename="/home/heider/Pictures/Logos/horn.png"
    inkscape:export-xdpi="144"
    inkscape:export-ydpi="144"
    inkscape:output_extension="org.inkscape.output.svg.inkscape"
    inkscape:version="0.92.4 (f8dce91, 2019-08-02)"
    sodipodi:docname="horn.svg">
  <defs
      id="defs14"/>
  <g
      id="g4810"
      transform="matrix(0.25886358,0,0,0.25886358,23.163506,5.4759799)">
    <path
        style="fill:#c8c8c8;fill-opacity:1;stroke:#000000;stroke-width:3.0150578;stroke-miterlimit:4;stroke-dasharray:none;stroke-opacity:1"
        d="M 541.13848,364.27604 C 487.5843,514.38357 368.46219,572.73826 245.05818,542.95796 134.42166,516.25718 47.896512,423.18261 27.017482,283.6287 l 26.701707,0.0885 c 21.660598,86.55437 85.671011,136.51527 147.861501,151.53146 73.47854,17.73466 168.51721,-31.64713 212.8656,-132.87702 l 126.69219,61.90435 z"
        id="path200"
        inkscape:connector-curvature="0"/>
    <path
        style="fill:#c8c8c8;fill-opacity:1;stroke:#000000;stroke-width:3.0150578;stroke-miterlimit:4;stroke-dasharray:none;stroke-opacity:1"
        d="m 20.081373,314.53572 c 2.305667,8.94488 16.369245,8.43964 30.52919,4.95386 13.383215,-4.75688 20.222959,-12.95774 17.931079,-21.92271 l -3.750543,-12.21661 -49.220858,15.36243 z"
        id="path202"
        inkscape:connector-curvature="0"
        sodipodi:nodetypes="cccccc"/>
    <path
        style="fill:#c8c8c8;fill-opacity:1;stroke:#000000;stroke-width:3.0150578;stroke-miterlimit:4;stroke-dasharray:none;stroke-opacity:1"
        d="m 64.791099,285.35026 c -3.160235,-7.52805 -14.697201,-10.38242 -25.444962,-7.81447 -16.456659,3.83036 -26.311242,14.03608 -24.449913,21.29365 1.87259,7.30147 13.96505,10.84833 31.720013,5.70279 15.959496,-5.63597 18.230154,-13.45482 18.174862,-19.18197 z"
        id="path204"
        inkscape:connector-curvature="0"
        sodipodi:nodetypes="ccscc"/>
    <path
        style="fill:#c8c8c8;fill-opacity:1;stroke:#000000;stroke-width:3.0150578;stroke-miterlimit:4;stroke-dasharray:none;stroke-opacity:1"
        d="m 41.149807,286.04699 c -9.320982,2.68017 -13.759897,6.127 -13.244136,8.08082 0.496424,1.92438 6.511668,2.61197 15.821374,-0.0695 6.698228,-2.69355 9.323521,-3.53136 9.992818,-6.38765 -1.041279,-2.66566 -3.270963,-4.31187 -12.570056,-1.62367 z"
        id="path206"
        inkscape:connector-curvature="0"
        sodipodi:nodetypes="ccccc"/>
    <path
        style="fill:#c8c8c8;fill-opacity:1;stroke:#000000;stroke-width:3.0150578;stroke-miterlimit:4;stroke-dasharray:none;stroke-opacity:1"
        d="m 391.44238,303.03423 c -6.20749,17.6182 24.56385,50.89255 68.34685,73.96916 43.94471,23.16993 80.20324,25.12607 90.87971,9.95107 l 31.99814,-42.87875 C 558.76394,298.91624 452.2485,237.97643 400.58722,247.17121 Z"
        id="path208"
        inkscape:connector-curvature="0"
        sodipodi:nodetypes="cccccc"/>
    <path
        style="fill:#c8c8c8;fill-opacity:1;stroke:#000000;stroke-width:3.0150578;stroke-miterlimit:4;stroke-dasharray:none;stroke-opacity:1"
        d="m 584.90878,341.11298 c 6.02064,-17.11347 -33.54567,-54.21445 -81.00008,-79.20722 -47.4393,-25.00251 -96.65412,-34.69749 -102.66799,-17.57875 -6.04516,17.10519 33.53626,54.19643 80.98104,79.19784 47.45025,25.00028 96.65829,34.68995 102.68703,17.58813 z"
        id="path210"
        inkscape:connector-curvature="0"/>
    <path
        style="fill:#c8c8c8;fill-opacity:1;stroke:#000000;stroke-width:3.0150578;stroke-miterlimit:4;stroke-dasharray:none;stroke-opacity:1"
        d="m 562.84086,325.26751 c 3.46179,-9.8254 -22.72416,-32.94451 -58.9187,-52.01954 -36.20676,-19.07917 -67.93285,-26.48935 -71.4001,-16.66282 -3.45653,9.85099 22.73638,32.94863 58.93771,52.02894 36.19717,19.08783 67.92191,26.49162 71.38109,16.65342 z"
        id="path216"
        inkscape:connector-curvature="0"/>
    <path
        style="fill:#c8c8c8;fill-opacity:1;stroke:#000000;stroke-width:3.0150578;stroke-miterlimit:4;stroke-dasharray:none;stroke-opacity:1"
        d="m 352.94807,386.41881 c -8.41861,7.03116 -17.52388,20.04432 -26.52866,25.05199 0.39637,44.79653 24.59706,92.52952 65.7187,124.44234 22.1742,-9.51119 43.37703,-23.20561 62.83807,-40.36798 C 409.9132,477.88545 364.58225,431.46059 352.94807,386.41881 Z M 73.654757,414.88418 c 8.960118,14.64832 18.791129,28.08386 29.599083,40.51105 7.72078,-20.07838 20.35984,-39.15522 32.06103,-50.09034 -8.6698,-5.72305 -17.30613,-13.9874 -25.1274,-21.92475 0,0.006 -25.819665,18.9474 -36.532713,31.50404 z m 170.180833,22.23816 c -10.83029,1.73738 -27.74007,0.89253 -38.53688,-0.66767 -10.8638,26.14207 -9.02153,54.08965 -4.72849,89.48402 14.12404,7.35139 28.98501,13.20388 44.53263,16.97156 6.38652,1.54658 12.67255,2.64353 18.98094,3.54966 -16.63624,-37.95609 -25.61311,-75.24454 -20.2482,-109.33757 z"
        id="path198"
        inkscape:connector-curvature="0"/>
  </g>
  <metadata
      id="metadata16">
    <rdf:RDF>
      <cc:Work
          rdf:about="">
        <dc:format>image/svg+xml</dc:format>
        <dc:type
            rdf:resource="http://purl.org/dc/dcmitype/StillImage"/>
      </cc:Work>
    </rdf:RDF>
  </metadata>
  <sodipodi:namedview
      bordercolor="#666666"
      borderopacity="1"
      gridtolerance="10"
      guidetolerance="10"
      id="namedview12"
      objecttolerance="10"
      pagecolor="#ffffff"
      showgrid="false"
      inkscape:current-layer="svg2"
      inkscape:cx="100"
      inkscape:cy="100"
      inkscape:pageopacity="0"
      inkscape:pageshadow="2"
      inkscape:window-height="1390"
      inkscape:window-maximized="1"
      inkscape:window-width="2535"
      inkscape:window-x="1920"
      inkscape:window-y="25"
      inkscape:zoom="1.18"/>
</svg>
